<svg width="16" height="12" viewBox="0 0 16 12" fill="none" xmlns="http://www.w3.org/2000/svg">
<path d="M0.00662526 5.73539L0.0165631 10.8313L0.102692 11.0652C0.26501 11.5152 0.523395 11.7952 0.90766 11.9369C1.06667 11.9972 1.41781 12.0007 7.85093 12.0007H14.6253L14.8472 11.9192C15.2977 11.7527 15.6886 11.4018 15.8774 10.9908L15.9834 10.7604L15.9934 5.7035L16 0.643036H8H0L0.00662526 5.73539ZM4.66749 2.6736C4.71056 2.69486 4.78012 2.76219 4.81656 2.81535C4.8795 2.90749 4.88613 2.97127 4.89607 3.6375C4.906 4.29663 4.90269 4.3746 4.84306 4.51989C4.72712 4.79985 4.69731 4.80693 3.8559 4.80693C2.81242 4.80693 2.84886 4.84946 2.84886 3.71546C2.84886 2.58501 2.8058 2.63108 3.85921 2.63108C4.37267 2.62753 4.61118 2.64171 4.66749 2.6736ZM8.60952 2.6736C8.65259 2.69486 8.72215 2.76219 8.75859 2.81535C8.82153 2.90749 8.82816 2.97127 8.8381 3.64813C8.85135 4.46319 8.82816 4.60494 8.66915 4.73252C8.57971 4.80339 8.53333 4.80693 7.81781 4.80693C6.75114 4.80693 6.79089 4.853 6.79089 3.71546C6.79089 2.58501 6.74783 2.63108 7.80124 2.63108C8.3147 2.62753 8.55321 2.64171 8.60952 2.6736ZM12.6211 2.68069C12.8033 2.78346 12.8199 2.86496 12.8199 3.72609C12.8199 4.86363 12.8729 4.80693 11.7963 4.80693C11.0675 4.80693 11.0443 4.80339 10.9416 4.72543C10.7892 4.60848 10.766 4.47737 10.766 3.69774C10.766 2.95356 10.7859 2.84016 10.9482 2.70549C11.0377 2.63108 11.0708 2.62753 11.783 2.62753C12.3826 2.62753 12.5449 2.63816 12.6211 2.68069ZM4.72712 7.51081C4.8795 7.62775 4.90269 7.75887 4.90269 8.52078C4.90269 9.2437 4.88282 9.34293 4.72381 9.50239C4.63437 9.59099 4.63106 9.59099 3.88903 9.60162C3.18344 9.61225 3.13706 9.60871 3.03437 9.53783C2.85549 9.42089 2.84555 9.35356 2.85549 8.46408C2.86542 7.67382 2.86542 7.66319 2.94493 7.5746C2.9913 7.52144 3.07412 7.46474 3.12712 7.44702C3.18344 7.4293 3.54451 7.41867 3.92547 7.42222C4.5913 7.4293 4.62443 7.43285 4.72712 7.51081ZM8.64928 7.49309C8.81491 7.61358 8.82816 7.68091 8.82816 8.5066C8.82816 8.92831 8.81822 9.31812 8.80166 9.37127C8.78841 9.42443 8.72878 9.49885 8.66915 9.53783C8.57308 9.60162 8.50021 9.60871 7.82443 9.60871C6.73789 9.60871 6.78427 9.65832 6.79752 8.47471C6.80745 7.67028 6.80745 7.66319 6.88696 7.5746C6.93333 7.52144 7.01615 7.46474 7.06915 7.44702C7.12547 7.4293 7.48654 7.41867 7.8675 7.42222C8.47039 7.4293 8.57308 7.43639 8.64928 7.49309ZM12.5251 7.44702C12.588 7.46829 12.6774 7.52498 12.7238 7.5746L12.8033 7.66673V8.53141V9.39608L12.7106 9.49176L12.6211 9.59099H11.8128H11.0046L10.9184 9.50594C10.7793 9.36419 10.7594 9.22598 10.7727 8.43218C10.7859 7.39741 10.7694 7.41513 11.7764 7.41513C12.1242 7.41158 12.4588 7.4293 12.5251 7.44702Z" fill="white"/>
</svg>
