<svg width="144" height="24" viewBox="0 0 144 24" fill="none" xmlns="http://www.w3.org/2000/svg">
    <path fill-rule="evenodd" clip-rule="evenodd" d="M105.064 13.183C105.064 11.0692 104.499 9.56455 103.371 8.63331C102.313 7.66545 100.55 7.16447 98.1507 7.12868C96.3523 7.12868 94.6234 7.27182 92.9323 7.5581C92.638 7.59942 92.3653 7.73806 92.1564 7.95257C91.9787 8.23018 91.8811 8.55276 91.8745 8.88381V10.2811C91.8745 10.5316 91.9802 10.6398 92.1564 10.6398C94.079 10.3156 96.0268 10.1716 97.9754 10.2095C98.8922 10.2095 99.8443 10.4242 100.761 10.8536C101.361 11.105 101.643 11.6417 101.643 12.4656L101.572 12.9308C101.537 13.0756 101.431 13.183 101.22 13.2188L96.0704 14.2574C94.3776 14.5794 93.0027 15.0812 92.0154 15.7254C91.0986 16.4777 90.6037 17.5163 90.6037 18.9144C90.5685 19.4512 90.6037 20.0246 90.8151 20.6337C91.0633 21.3145 91.3796 21.887 91.7672 22.3156C92.1916 22.9248 93.0027 23.3201 94.0958 23.6064C94.9069 23.7495 96.1761 23.8211 97.9041 23.8569C99.9492 23.9284 101.537 23.8569 102.56 23.6779C103.723 23.499 104.358 23.2843 104.605 22.9972C104.853 22.6751 105.029 22.3897 105.064 22.066V13.183H105.064ZM94.0958 18.9144C94.0605 18.5549 94.2015 18.1621 94.5538 17.6969C94.943 17.2658 95.3649 17.0161 95.8246 16.9446L101.608 15.9775V20.6346L101.009 20.7777C100.057 20.9924 99.0692 21.064 98.0114 21.0282C97.0241 21.0282 96.1073 20.8851 95.2609 20.563C94.4825 20.2742 94.0958 19.7383 94.0958 18.9144ZM76.4265 20.6695L76.1446 20.4174L73.5341 20.4531L72.1937 20.31L71.453 19.9521L71.0999 19.2356L71.0294 18.2328V10.4242L71.3473 9.95819H75.5096C75.721 9.95819 75.8619 9.85083 75.8619 9.63612V7.48653L75.5096 7.12868H71.0302V2.86529C71.0302 2.54322 70.8893 2.39925 70.5714 2.39925H69.0547C68.0322 2.39925 67.5029 2.93686 67.5029 4.04702V18.1596C67.5029 19.9863 67.9265 21.3128 68.7721 22.1708C69.7242 23.0305 71.1703 23.4974 73.1097 23.4974H74.4158L75.5088 23.3184L76.2847 22.9589L76.4961 22.2424L76.4265 20.6695ZM130.809 7.27182C129.681 7.27182 128.586 7.41496 127.493 7.73785C126.471 7.98835 125.624 8.4186 125.061 9.06273C124.32 9.85083 123.79 10.7105 123.473 11.5352C123.119 12.7161 122.943 14.0784 122.908 15.618C122.908 16.6583 123.049 17.8042 123.368 19.0217C123.544 19.9888 123.966 20.8842 124.531 21.7439C125.237 22.7109 126.049 23.2851 127.001 23.5348C128.164 23.7853 129.504 23.9642 130.985 24C132.573 24 133.912 23.9642 135.005 23.8926C136.205 23.7495 136.839 23.6064 136.909 23.4274C137.015 23.3559 137.087 23.0321 137.087 22.4604L137.052 21.0265C137.015 20.7402 136.909 20.5971 136.698 20.5971C134.935 20.8476 133.206 20.955 131.515 20.955C130.774 21.0265 130.138 20.955 129.538 20.8476C128.764 20.7045 128.269 20.5613 128.058 20.3807C127.704 20.0945 127.423 19.844 127.247 19.5585C126.894 18.9493 126.717 18.4825 126.717 18.1246L135.005 16.2264C135.816 16.0474 136.417 15.7969 136.804 15.4383C137.299 15.0804 137.65 14.6144 137.791 14.0776C138.004 13.575 138.11 12.93 138.11 12.1427C138.074 11.5702 137.969 10.961 137.756 10.4234C137.509 9.85083 137.158 9.31323 136.627 8.88297C136.098 8.41694 135.358 8.05908 134.406 7.80776C133.171 7.48736 131.973 7.27182 130.809 7.27182ZM127.423 11.2481C127.74 10.8894 128.164 10.604 128.764 10.46C129.716 10.2095 130.491 10.1022 131.091 10.1379C132.255 10.0664 133.136 10.2453 133.737 10.7105C134.266 11.0692 134.548 11.606 134.583 12.1793C134.618 12.4298 134.583 12.7519 134.477 13.0748C134.407 13.3969 134.229 13.6474 133.948 13.7897C133.666 13.9703 133.35 14.0776 133.102 14.0776L126.542 15.3309V14.9373C126.507 14.185 126.542 13.4318 126.683 12.7153C126.753 12.3233 127.001 11.8207 127.423 11.2481ZM109.33 7.20025L106.933 7.27182L106.651 7.34339L106.508 7.5581C106.508 7.59388 106.543 7.66545 106.543 7.73702L112.081 22.9248L112.258 23.3917L112.681 23.499H116.067L116.49 23.3917L116.772 23.0321L122.522 7.5581C122.452 7.48653 122.309 7.41496 122.098 7.34339C121.429 7.34339 120.476 7.34339 119.136 7.37917L118.784 7.91678L114.657 20.1311H114.48L110.496 7.91678L110.071 7.37917L109.33 7.20025ZM85.0313 10.6398C85.8408 10.4192 86.5471 10.2769 87.0764 10.2811C88.0145 10.2886 88.6782 10.2994 89.5811 10.4242C89.7942 10.4542 89.9351 10.2794 89.8982 9.85166C89.863 9.45856 89.863 9.06303 89.8982 8.66993C89.9318 8.31291 89.777 8.04411 89.5811 7.84604C89.3715 7.62798 89.1192 7.45701 88.8404 7.34422C88.7683 7.31426 88.7347 7.31426 88.6995 7.30844L88.4881 7.27265L86.6544 7.23687C85.8785 7.22189 84.8945 7.46822 83.622 7.73869C81.7899 8.12733 80.0439 9.70436 79.4245 11.4645C78.9927 12.692 78.9312 13.9711 78.9312 15.226V23.1062C78.9312 23.3942 79.0369 23.5373 79.2835 23.5373H81.9292C82.2111 23.5373 82.352 23.3942 82.352 23.1062V15.226C82.352 14.4737 82.4143 13.7547 82.5634 13.0773C82.86 11.7233 83.7621 10.9851 85.0313 10.6398ZM142.06 0C141.072 0 140.578 0.537602 140.578 1.61198V23.0679C140.578 23.3559 140.683 23.499 140.932 23.499H143.577C143.859 23.499 144 23.3559 144 23.0679V0.358681L143.577 0H142.06ZM7.30189 1.86331C4.97411 1.86331 3.1404 2.50744 1.79994 3.76157C0.566 4.97992 -0.033766 6.51951 0.00146613 8.27463C0.00146613 9.85083 0.495535 11.105 1.41239 12.0712C2.29401 13.0032 3.74017 13.7181 5.85573 14.2565L12.2041 15.7245C12.9448 15.8336 13.4732 16.0483 13.6855 16.3695C13.9681 16.5484 14.1443 16.9071 14.1795 17.4797C14.25 18.3035 13.5806 18.7704 12.2049 18.8062H2.32924C1.62378 18.8062 1.13053 18.9851 0.812624 19.3072C0.495536 19.6309 0.353787 20.1311 0.353787 20.8127V23.1403L0.38902 23.3567L0.741341 23.4641H11.8509C14.5663 23.4641 16.6122 22.8191 17.9526 21.6016C19.1866 20.5272 19.8216 19.1291 19.892 17.3024C19.8216 15.5473 19.3627 14.1866 18.4811 13.2912C17.4938 12.181 16.0124 11.4279 14.1435 11.0708L7.54851 9.56622C7.08967 9.53043 6.63166 9.31572 6.10236 8.84969L5.85573 8.59836C5.60911 8.491 5.53864 8.24051 5.57387 7.81026C5.57387 7.34422 5.75004 7.02216 6.10318 6.84323C6.31457 6.62769 6.73817 6.48455 7.30189 6.48455H17.1767C18.4459 6.48455 19.1161 5.80381 19.1874 4.4781V2.14959C19.1169 1.93488 18.9047 1.86331 18.4819 1.86331H7.30189ZM42.7839 1.86331H35.9128C35.2581 1.86331 34.5846 2.24446 34.1766 2.7546L26.9811 11.7491V2.20285C26.9811 1.9482 26.836 1.86331 26.5935 1.86331H23.7356C22.5017 1.86331 21.7962 2.29273 21.7962 3.1524V22.9989C21.7962 23.2768 22.1182 23.4641 22.3886 23.4641H25.3579C26.2043 23.4641 26.9802 23.0138 26.9802 22.066V12.0004L34.2512 22.651C34.524 23.0505 35.2082 23.4641 35.7801 23.4641H40.0948C40.5012 23.4641 40.8068 23.4108 40.9412 23.2119C41.0616 23.0346 41.0182 22.7484 40.806 22.4288L33.8218 11.8931L39.9579 3.79819L47.3305 14.2574C47.7188 14.8307 47.9655 15.5107 48.0007 16.3703V22.9431C48.0007 23.3101 48.2146 23.4632 48.6037 23.4632H51.5272C52.4358 23.4824 53.1028 22.9855 53.1847 22.0651V16.3695C53.22 15.9043 53.4666 15.3309 53.8902 14.686L62.468 2.45417C62.6564 2.18537 62.7203 1.86248 62.2484 1.86248H58.5105C57.7182 1.86248 57.2053 1.97898 56.7473 2.68636L50.7169 11.9996L45.0461 2.96099C44.548 2.17539 43.9261 1.86331 42.7839 1.86331Z" fill="white"/>
</svg>
